<?xml version="1.0" encoding="UTF-8"?>
<svg version="1.1" xmlns="http://www.w3.org/2000/svg" width="500" height="500">
<path d="M0 0 C1.56135692 -0.009136 3.12269487 -0.02305649 4.68395996 -0.04229736 C18.31143684 -0.19160055 31.91808572 0.92032061 44.57098389 6.42355347 C45.61512451 6.86489624 45.61512451 6.86489624 46.68035889 7.31515503 C53.40431189 10.30323525 59.46979778 14.22279606 64.82098389 19.29855347 C65.15098389 20.28855347 65.48098389 21.27855347 65.82098389 22.29855347 C66.48098389 22.29855347 67.14098389 22.29855347 67.82098389 22.29855347 C69.24326419 24.25230157 70.51388142 26.17252135 71.75848389 28.23605347 C72.11821289 28.82781372 72.47794189 29.41957397 72.84857178 30.02926636 C80.21067772 42.46240841 81.90405328 57.65704467 79.13739014 71.79074097 C75.75552007 82.59588601 70.22126965 91.77559876 60.82098389 98.29855347 C51.26860286 103.20267765 40.37398977 105.31673762 29.94598389 101.98605347 C23.44917145 99.48195347 18.5861911 96.27055886 14.82098389 90.29855347 C13.8246635 87.3284799 13.22904495 84.40122464 12.82098389 81.29855347 C13.90766357 80.84415894 13.90766357 80.84415894 15.01629639 80.38058472 C24.6108244 76.22295591 30.0752225 72.31893488 34.55145264 62.66964722 C38.54949003 52.05332023 38.53222648 42.00104531 34.82098389 31.29855347 C30.06596536 21.51639185 21.91401951 15.04853508 11.82098389 11.29855347 C-27.42620457 0.33565166 -78.9409641 11.05205791 -118.25592041 18.78952026 C-120.62658008 19.20235125 -122.97479603 19.53761761 -125.36170959 19.83036804 C-126.62142075 19.98486923 -127.8811319 20.13937042 -129.17901611 20.29855347 C-129.09673003 49.99736016 -129.00455398 79.69612406 -128.8989645 109.39485697 C-128.88644872 112.91752443 -128.87401547 116.44019218 -128.8616333 119.96286011 C-128.85916731 120.66402881 -128.85670131 121.3651975 -128.85416059 122.08761374 C-128.81465992 133.37473126 -128.78181338 144.66185852 -128.7515163 155.94900408 C-128.720174 167.56909039 -128.68147161 179.18913619 -128.63622606 190.80917674 C-128.61118347 197.31976492 -128.58933921 203.83032529 -128.57567215 210.3409481 C-132.47070658 271.95561103 -132.47070658 271.95561103 -111.70635986 326.85714722 C-104.25674766 333.55186538 -95.75545533 334.16956965 -86.17901611 335.29855347 C-86.17901611 336.94855347 -86.17901611 338.59855347 -86.17901611 340.29855347 C-128.08901611 340.29855347 -169.99901611 340.29855347 -213.17901611 340.29855347 C-213.17901611 338.64855347 -213.17901611 336.99855347 -213.17901611 335.29855347 C-211.60313721 335.06072144 -211.60313721 335.06072144 -209.99542236 334.81808472 C-199.81616519 333.17591693 -191.48046003 331.4649517 -184.42901611 323.36105347 C-165.73329327 297.00527751 -171.01889828 252.42994464 -171.04469061 221.86960435 C-171.04727146 217.83710562 -171.04486087 213.80460884 -171.04330444 209.77210999 C-171.04149807 203.00219304 -171.04384733 196.23228709 -171.04864502 189.46237183 C-171.05407358 181.71441315 -171.05232895 173.96648087 -171.04681861 166.21852285 C-171.04223005 159.48904825 -171.04166491 152.75958143 -171.04425728 146.03010577 C-171.04579035 142.04507339 -171.04609834 138.06005326 -171.04272079 134.07502174 C-170.80436029 98.70819803 -170.80436029 98.70819803 -173.49151611 63.48605347 C-173.62122803 62.41548706 -173.75093994 61.34492065 -173.88458252 60.24191284 C-174.91052652 52.30923186 -176.31616186 44.80191876 -179.17901611 37.29855347 C-179.52577393 36.38331909 -179.87253174 35.46808472 -180.22979736 34.52511597 C-183.35569321 27.37100383 -188.42773739 21.67823992 -195.47198486 18.15011597 C-198.93368409 17.0611543 -202.40123592 16.5927058 -205.99151611 16.17355347 C-206.68438721 16.08718628 -207.3772583 16.00081909 -208.09112549 15.91183472 C-209.78635317 15.70139266 -211.48259367 15.49913675 -213.17901611 15.29855347 C-213.17901611 13.31855347 -213.17901611 11.33855347 -213.17901611 9.29855347 C-212.23752213 9.29046661 -211.29602814 9.28237976 -210.32600403 9.27404785 C-201.28575503 9.19526526 -192.24563274 9.10724387 -183.2055521 9.01102638 C-178.56221318 8.96187936 -173.91888869 8.91557189 -169.27545166 8.87667847 C-145.84422969 8.67782654 -122.55040007 8.02333295 -99.17901611 6.29855347 C-97.64865219 6.18858032 -97.64865219 6.18858032 -96.08737183 6.0763855 C-90.32355397 5.6607217 -84.56344433 5.20820932 -78.80401611 4.73605347 C-77.21679887 4.6088213 -75.62955909 4.4818701 -74.04229736 4.35519409 C-67.86101106 3.85932488 -61.68134841 3.35369949 -55.50714111 2.77511597 C-37.05047817 1.07676784 -18.53413216 0.10402498 0 0 Z " fill="#F7F7F7" transform="translate(306.17901611328125,88.70144653320313)"/>
<path d="M0 0 C2.92130337 1.80783014 4.48980881 4.03712608 5.82421875 7.12890625 C6.48300864 10.02346432 6.94288234 12.89349519 7.33203125 15.8359375 C7.71828188 18.42013811 8.20551234 20.8752862 8.796875 23.4140625 C9.69605879 27.35026018 10.2950516 31.26727925 10.81152344 35.26953125 C13.29216997 54.22077682 19.21724553 71.96487112 33.82421875 85.12890625 C47.98081829 95.59008175 63.32106349 100.1810163 80.69921875 100.69140625 C82.53007349 100.75149715 84.36081532 100.81516023 86.19140625 100.8828125 C87.38419189 100.91870483 87.38419189 100.91870483 88.60107422 100.95532227 C90.82421875 101.12890625 90.82421875 101.12890625 92.87548828 101.65209961 C95.10757117 102.29096066 95.10757117 102.29096066 98.63671875 102.00390625 C102.95426696 101.96370561 106.01712271 103.00571807 109.82421875 105.12890625 C113.76845981 109.38453476 115.19735056 112.16015521 115.1015625 118.03515625 C114.48567997 122.68463566 111.70253553 125.39729314 108.2355957 128.28515625 C103.854797 130.65285051 100.74498005 130.57817379 95.8671875 130.37890625 C95.00595779 130.36375977 94.14472809 130.34861328 93.25740051 130.33300781 C89.60200132 130.26833567 85.94845491 130.15718254 82.29418945 130.046875 C64.96853045 129.56966196 50.72487532 131.86991086 34.82421875 139.12890625 C33.16106024 139.80427725 31.49540684 140.47365624 29.82421875 141.12890625 C29.82421875 141.78890625 29.82421875 142.44890625 29.82421875 143.12890625 C28.67156023 144.12887494 27.47498838 145.07841404 26.26171875 146.00390625 C18.84793554 152.31350898 13.93882638 161.6556835 11.82421875 171.12890625 C11.51275715 175.09908673 11.58354307 179.02566878 11.69921875 183.00390625 C12.19609668 205.94797538 12.19609668 205.94797538 7.82421875 212.12890625 C3.59510642 215.76790989 -0.59289015 217.39027756 -6.17578125 217.12890625 C-10.62304847 216.21519498 -13.46737733 214.87363858 -16.61328125 211.56640625 C-18.97266475 207.88576799 -19.30374134 205.96482905 -19.30859375 201.59765625 C-19.30988281 200.47617187 -19.31117188 199.3546875 -19.3125 198.19921875 C-19.30863281 197.02101563 -19.30476563 195.8428125 -19.30078125 194.62890625 C-19.30464844 193.48164063 -19.30851562 192.334375 -19.3125 191.15234375 C-19.30655949 185.93657855 -19.20541208 180.83706885 -18.578125 175.65625 C-17.50443048 166.07663853 -22.23968282 157.91761164 -27.97265625 150.5390625 C-31.30045377 146.89854642 -34.83991916 144.4353752 -39.17578125 142.12890625 C-40.18705078 141.56429687 -40.18705078 141.56429687 -41.21875 140.98828125 C-52.93841854 135.0954648 -66.35594469 134.73971285 -79.19482422 134.21728516 C-81.81949479 134.10018746 -84.43343733 133.91883378 -87.05078125 133.69140625 C-87.77007812 133.63082031 -88.489375 133.57023438 -89.23046875 133.5078125 C-91.46514922 133.07254341 -93.19173132 132.22769623 -95.17578125 131.12890625 C-95.17578125 130.46890625 -95.17578125 129.80890625 -95.17578125 129.12890625 C-95.87703125 129.33515625 -96.57828125 129.54140625 -97.30078125 129.75390625 C-101.9770363 130.36385256 -105.05604797 128.86691227 -108.92578125 126.31640625 C-112.36708074 122.97069841 -113.03581569 120.4119239 -113.55078125 115.69140625 C-113.10240724 111.43185314 -111.81945995 109.45238805 -109.17578125 106.12890625 C-108.78003906 105.60683594 -108.38429687 105.08476562 -107.9765625 104.546875 C-105.25382726 102.40294248 -102.57496836 102.24308884 -99.17578125 101.69140625 C-97.72372137 101.43754963 -96.27190759 101.18228226 -94.8203125 100.92578125 C-92.5046694 100.52766518 -90.18877072 100.13112027 -87.87255859 99.73632812 C-67.20850359 96.11979091 -45.82129114 89.014416 -33.17578125 71.12890625 C-23.05652002 53.7612406 -20.43615157 35.83252338 -21.42504883 15.94189453 C-21.5987958 10.10375745 -20.5369718 6.93590303 -17.17578125 2.12890625 C-12.69079096 -1.9603496 -5.53940313 -2.21775027 0 0 Z M-6.17578125 80.12890625 C-6.64886719 80.80695313 -7.12195313 81.485 -7.609375 82.18359375 C-15.8855621 93.83156079 -24.68027028 102.77822595 -36.17578125 111.12890625 C-33.45540569 114.40138755 -29.84737616 115.91020556 -26.11328125 117.75390625 C-19.17396987 121.30514676 -13.66963426 125.56180187 -8.17578125 131.12890625 C-7.05236328 132.25039063 -7.05236328 132.25039063 -5.90625 133.39453125 C-5.33519531 133.966875 -4.76414062 134.53921875 -4.17578125 135.12890625 C-0.03938789 133.53798573 3.05635123 130.52415707 5.82421875 127.12890625 C5.82421875 126.46890625 5.82421875 125.80890625 5.82421875 125.12890625 C6.38109375 124.88140625 6.93796875 124.63390625 7.51171875 124.37890625 C10.24475842 122.90158751 12.41703053 121.09842388 14.82421875 119.12890625 C16.96092635 117.57710743 19.10031699 116.02987867 21.25 114.49609375 C21.76949219 114.04492188 22.28898437 113.59375 22.82421875 113.12890625 C22.82421875 112.46890625 22.82421875 111.80890625 22.82421875 111.12890625 C20.94146155 109.45378255 20.94146155 109.45378255 18.57421875 107.75390625 C16.07859055 105.90257422 13.82496128 104.12966748 11.65234375 101.90234375 C10.00946222 99.89680974 10.00946222 99.89680974 7.82421875 100.12890625 C7.58574219 99.60425781 7.34726562 99.07960938 7.1015625 98.5390625 C5.42958686 95.38429501 3.42349435 92.4915977 1.38671875 89.56640625 C0.79407227 88.70112305 0.79407227 88.70112305 0.18945312 87.81835938 C-1.74631384 85.02583033 -3.64813462 82.41272844 -6.17578125 80.12890625 Z " fill="#F6F6F6" transform="translate(351.17578125,202.87109375)"/>
<path d="M0 0 C0.66 0.33 1.32 0.66 2 1 C-0.31 3.31 -2.62 5.62 -5 8 C-5 5 -5 5 -2.5 2.3125 C-1.675 1.549375 -0.85 0.78625 0 0 Z " fill="#B3B3B3" transform="translate(337,203)"/>
</svg>
